<svg width="48" height="45" viewBox="0 0 48 45" fill="none" xmlns="http://www.w3.org/2000/svg">
<path d="M43.2 0H4.8C2.16 0 0 2.17812 0 4.84027V42.5702C0 44.7241 2.592 45.8131 4.104 44.2885L9.6 38.7221H43.2C45.84 38.7221 48 36.544 48 33.8819V4.84027C48 2.17812 45.84 0 43.2 0ZM27.768 23.1607L25.08 29.0658C24.9845 29.2771 24.8308 29.4562 24.6372 29.5818C24.4436 29.7074 24.2182 29.7742 23.988 29.7742C23.7578 29.7742 23.5324 29.7074 23.3388 29.5818C23.1452 29.4562 22.9915 29.2771 22.896 29.0658L20.208 23.1607L14.352 20.4501C14.1425 20.3539 13.9649 20.1989 13.8403 20.0036C13.7158 19.8084 13.6495 19.5811 13.6495 19.349C13.6495 19.1168 13.7158 18.8896 13.8403 18.6943C13.9649 18.4991 14.1425 18.3441 14.352 18.2478L20.208 15.5373L22.896 9.63213C22.9915 9.42087 23.1452 9.24175 23.3388 9.11615C23.5324 8.99055 23.7578 8.92377 23.988 8.92377C24.2182 8.92377 24.4436 8.99055 24.6372 9.11615C24.8308 9.24175 24.9845 9.42087 25.08 9.63213L27.768 15.5373L33.624 18.2478C33.8335 18.3441 34.0111 18.4991 34.1357 18.6943C34.2602 18.8896 34.3265 19.1168 34.3265 19.349C34.3265 19.5811 34.2602 19.8084 34.1357 20.0036C34.0111 20.1989 33.8335 20.3539 33.624 20.4501L27.768 23.1607Z" fill="#0041CA"/>
</svg>
