<svg width="59" height="59" viewBox="0 0 59 59" fill="none" xmlns="http://www.w3.org/2000/svg">
<path d="M29.4705 0C13.1865 0 0 13.216 0 29.5C0 45.784 13.1865 59 29.4705 59C45.784 59 59 45.784 59 29.5C59 13.216 45.784 0 29.4705 0ZM49.914 17.7H41.2115C40.2882 14.0463 38.921 10.5194 37.1405 7.198C42.5216 9.05061 47.056 12.7786 49.914 17.7ZM29.5 6.018C31.9485 9.558 33.866 13.4815 35.1345 17.7H23.8655C25.134 13.4815 27.0515 9.558 29.5 6.018ZM6.667 35.4C6.195 33.512 5.9 31.5355 5.9 29.5C5.9 27.4645 6.195 25.488 6.667 23.6H16.638C16.402 25.547 16.225 27.494 16.225 29.5C16.225 31.506 16.402 33.453 16.638 35.4H6.667ZM9.086 41.3H17.7885C18.7325 44.9875 20.0895 48.5275 21.8595 51.802C16.4727 49.9595 11.9352 46.2289 9.086 41.3ZM17.7885 17.7H9.086C11.9352 12.7711 16.4727 9.04048 21.8595 7.198C20.079 10.5194 18.7118 14.0463 17.7885 17.7ZM29.5 52.982C27.0515 49.442 25.134 45.5185 23.8655 41.3H35.1345C33.866 45.5185 31.9485 49.442 29.5 52.982ZM36.403 35.4H22.597C22.3315 33.453 22.125 31.506 22.125 29.5C22.125 27.494 22.3315 25.5175 22.597 23.6H36.403C36.6685 25.5175 36.875 27.494 36.875 29.5C36.875 31.506 36.6685 33.453 36.403 35.4ZM37.1405 51.802C38.9105 48.5275 40.2675 44.9875 41.2115 41.3H49.914C47.056 46.2214 42.5216 49.9494 37.1405 51.802ZM42.362 35.4C42.598 33.453 42.775 31.506 42.775 29.5C42.775 27.494 42.598 25.547 42.362 23.6H52.333C52.805 25.488 53.1 27.4645 53.1 29.5C53.1 31.5355 52.805 33.512 52.333 35.4H42.362Z" fill="#0041CA"/>
</svg>
