<svg width="83" height="83" viewBox="0 0 83 83" fill="none" xmlns="http://www.w3.org/2000/svg">
<path d="M0 17.2917C0 12.7056 1.8218 8.30743 5.06461 5.06461C8.30743 1.8218 12.7056 0 17.2917 0H65.7083C70.2944 0 74.6926 1.8218 77.9354 5.06461C81.1782 8.30743 83 12.7056 83 17.2917V41.5H58.7917C54.2056 41.5 49.8074 43.3218 46.5646 46.5646C43.3218 49.8074 41.5 54.2056 41.5 58.7917V83H17.2917C12.7056 83 8.30743 81.1782 5.06461 77.9354C1.8218 74.6926 0 70.2944 0 65.7083V17.2917ZM48.4167 82.0247C50.8629 81.1668 53.0849 79.7697 54.9183 77.937L77.937 54.9114C79.7663 53.0793 81.1609 50.8598 82.0178 48.4167H58.7917C56.04 48.4167 53.4011 49.5097 51.4554 51.4554C49.5097 53.4011 48.4167 56.04 48.4167 58.7917V82.0247Z" fill="#0EED74"/>
</svg>
