<svg width="89" height="62" viewBox="0 0 89 62" fill="none" xmlns="http://www.w3.org/2000/svg">
<path d="M29.37 8.85714C29.37 13.7424 25.3789 17.7143 20.47 17.7143C15.5611 17.7143 11.57 13.7424 11.57 8.85714C11.57 3.96496 15.5611 0 20.47 0C25.3789 0 29.37 3.96496 29.37 8.85714ZM4.45 31C4.45 26.1147 8.43414 22.1429 13.35 22.1429H26.7C28.3966 22.1429 29.9958 22.6134 31.3447 23.4437C26.1716 25.5335 22.2222 29.9759 20.8037 35.4286H8.9C6.44277 35.4286 4.45 33.4496 4.45 31ZM57.8361 23.333C59.1433 22.5719 60.673 22.1429 62.3 22.1429H75.65C80.5589 22.1429 84.55 26.1147 84.55 31C84.55 33.4496 82.5614 35.4286 80.1 35.4286H68.6413C67.195 29.879 63.0092 25.3813 57.8361 23.333ZM54.4012 26.9036C58.8652 27.9277 62.4808 31.1799 63.9827 35.4286C64.4833 36.8125 64.7475 38.3071 64.7475 39.8571C64.7475 42.3067 62.7589 44.2857 60.2975 44.2857H29.1475C26.6861 44.2857 24.6975 42.3067 24.6975 39.8571C24.6975 38.3071 24.9617 36.8125 25.4623 35.4286C26.9225 31.3183 30.3573 28.1214 34.6405 27.0004C35.6139 26.7237 36.8655 26.5714 38.0475 26.5714H51.3975C52.4266 26.5714 53.4417 26.6821 54.4012 26.9036ZM78.32 8.85714C78.32 13.7424 74.3289 17.7143 69.42 17.7143C64.5111 17.7143 60.52 13.7424 60.52 8.85714C60.52 3.96496 64.5111 0 69.42 0C74.3289 0 78.32 3.96496 78.32 8.85714ZM33.5975 11.0714C33.5975 4.95723 38.5759 0 44.7225 0C50.8691 0 55.8475 4.95723 55.8475 11.0714C55.8475 17.1884 50.8691 22.1429 44.7225 22.1429C38.5759 22.1429 33.5975 17.1884 33.5975 11.0714ZM84.55 53.1429C87.0114 53.1429 89 55.1219 89 57.5714C89 60.021 87.0114 62 84.55 62H4.45C1.99277 62 0 60.021 0 57.5714C0 55.1219 1.99277 53.1429 4.45 53.1429H84.55Z" fill="#0041CA"/>
</svg>
