<svg width="83" height="83" viewBox="0 0 83 83" fill="none" xmlns="http://www.w3.org/2000/svg">
<path d="M46.6875 23.3438C46.6875 29.5349 44.2281 35.4725 39.8503 39.8503C35.4725 44.2281 29.5349 46.6875 23.3438 46.6875C17.1526 46.6875 11.215 44.2281 6.83723 39.8503C2.45942 35.4725 0 29.5349 0 23.3438C0 17.1526 2.45942 11.215 6.83723 6.83723C11.215 2.45942 17.1526 0 23.3438 0C29.5349 0 35.4725 2.45942 39.8503 6.83723C44.2281 11.215 46.6875 17.1526 46.6875 23.3438ZM25.9375 12.9688C25.9375 12.2808 25.6642 11.6211 25.1778 11.1347C24.6914 10.6483 24.0317 10.375 23.3438 10.375C22.6558 10.375 21.9961 10.6483 21.5097 11.1347C21.0233 11.6211 20.75 12.2808 20.75 12.9688V20.75H12.9688C12.2808 20.75 11.6211 21.0233 11.1347 21.5097C10.6483 21.9961 10.375 22.6558 10.375 23.3438C10.375 24.0317 10.6483 24.6914 11.1347 25.1778C11.6211 25.6642 12.2808 25.9375 12.9688 25.9375H20.75V33.7188C20.75 34.4067 21.0233 35.0664 21.5097 35.5528C21.9961 36.0392 22.6558 36.3125 23.3438 36.3125C24.0317 36.3125 24.6914 36.0392 25.1778 35.5528C25.6642 35.0664 25.9375 34.4067 25.9375 33.7188V25.9375H33.7188C34.4067 25.9375 35.0664 25.6642 35.5528 25.1778C36.0392 24.6914 36.3125 24.0317 36.3125 23.3438C36.3125 22.6558 36.0392 21.9961 35.5528 21.5097C35.0664 21.0233 34.4067 20.75 33.7188 20.75H25.9375V12.9688ZM23.3438 51.875C28.2274 51.8759 33.0295 50.6232 37.2904 48.2369C41.5513 45.8506 45.1284 42.4105 47.6792 38.246C50.23 34.0814 51.6691 29.3318 51.8588 24.4519C52.0484 19.5719 50.9823 14.725 48.7625 10.375H67.4375C71.407 10.3748 75.2266 11.8914 78.1147 14.6147C81.0028 17.3379 82.7412 21.0618 82.9741 25.0245L83 25.9375V46.6875H62.25L61.337 46.7134C57.5315 46.9369 53.9404 48.5493 51.2448 51.2448C48.5493 53.9404 46.9369 57.5315 46.7134 61.337L46.6875 62.25V83H25.9375C21.968 83.0002 18.1484 81.4836 15.2603 78.7603C12.3722 76.0371 10.6338 72.3132 10.4009 68.3505L10.375 67.4375V48.7625C14.2656 50.7545 18.675 51.875 23.3438 51.875ZM82.4812 51.8802C82.0791 53.1138 81.4492 54.2611 80.6241 55.2624L79.9601 55.9887L55.9887 79.9601C54.8267 81.1221 53.4157 81.9832 51.8802 82.4864L51.875 62.25L51.9009 61.4719C52.0866 59.0017 53.1499 56.6795 54.8986 54.9251C56.6473 53.1707 58.966 52.0998 61.4356 51.9061L62.25 51.875L82.4812 51.8802Z" fill="#ED0E43"/>
</svg>
