<svg width="70" height="73" viewBox="0 0 70 73" fill="none" xmlns="http://www.w3.org/2000/svg">
<path d="M34.9858 0C28.064 0.014812 21.3013 2.15174 15.5501 6.14146C9.79886 10.1312 5.31652 15.7951 2.66798 22.4194C0.0194386 29.0438 -0.676763 36.332 0.667121 43.3655C2.011 50.399 5.33483 56.863 10.2197 61.9429L3.83407 68.5574C3.60223 68.8027 3.4193 69.0928 3.29572 69.4113C3.17213 69.7298 3.11032 70.0704 3.11381 70.4137C3.1173 70.7569 3.18602 71.0961 3.31605 71.4118C3.44607 71.7275 3.63486 72.0136 3.87164 72.2538C4.10841 72.4939 4.38853 72.6834 4.696 72.8114C5.00347 72.9394 5.33227 73.0035 5.66363 72.9999C5.99498 72.9962 6.32241 72.9251 6.62721 72.7904C6.93201 72.6557 7.20822 72.4601 7.44006 72.2149L14.1011 65.315C20.1925 70.0898 27.6312 72.6564 35.2701 72.6189C42.9089 72.5814 50.3238 69.9419 56.3713 65.1075L63.2326 72.2149C63.7117 72.6398 64.3279 72.8619 64.9581 72.8367C65.5884 72.8114 66.1862 72.5408 66.6322 72.0788C67.0782 71.6169 67.3394 70.9976 67.3638 70.3448C67.3881 69.692 67.1737 69.0537 66.7635 68.5574L60.0273 61.6835C64.8435 56.5736 68.0982 50.1061 69.3845 43.09C70.6707 36.074 69.9313 28.8208 67.2588 22.2378C64.5863 15.6547 60.0993 10.034 54.359 6.07866C48.6188 2.12333 41.8801 0.00895426 34.9858 0ZM53.6918 45.2121C53.4049 45.83 52.8935 46.3051 52.2694 46.5336C51.6453 46.7621 50.9593 46.7253 50.3613 46.4313L32.4816 37.4563V14.7594C32.4816 14.0715 32.7454 13.4117 33.2151 12.9252C33.6847 12.4388 34.3216 12.1655 34.9858 12.1655C35.6499 12.1655 36.2869 12.4388 36.7565 12.9252C37.2261 13.4117 37.4899 14.0715 37.4899 14.7594V34.2139L52.5149 41.7622C52.8146 41.9047 53.0842 42.107 53.3083 42.3577C53.5323 42.6084 53.7063 42.9025 53.8203 43.2231C53.9344 43.5436 53.9861 43.8844 53.9727 44.2257C53.9592 44.567 53.8808 44.9023 53.7419 45.2121H53.6918Z" fill="#ED510E"/>
</svg>
